<svg width="69" height="14" viewBox="0 0 69 14" fill="none" xmlns="http://www.w3.org/2000/svg">
<path fill-rule="evenodd" clip-rule="evenodd" d="M12 4H13C13.5523 4 14 4.44772 14 5V11C14 11.5523 13.5523 12 13 12H12C11.4477 12 11 11.5523 11 11V5C11 4.44772 11.4477 4 12 4Z" fill="#D1D1D6"/>
<path fill-rule="evenodd" clip-rule="evenodd" d="M7.5 6H8.5C9.05228 6 9.5 6.44772 9.5 7V11C9.5 11.5523 9.05228 12 8.5 12H7.5C6.94772 12 6.5 11.5523 6.5 11V7C6.5 6.44772 6.94772 6 7.5 6Z" fill="#D1D1D6"/>
<path fill-rule="evenodd" clip-rule="evenodd" d="M3 7.5H4C4.55228 7.5 5 7.94772 5 8.5V11C5 11.5523 4.55228 12 4 12H3C2.44772 12 2 11.5523 2 11V8.5C2 7.94772 2.44772 7.5 3 7.5Z" fill="#D1D1D6"/>
<path fill-rule="evenodd" clip-rule="evenodd" d="M16.5 2H17.5C18.0523 2 18.5 2.44772 18.5 3V11C18.5 11.5523 18.0523 12 17.5 12H16.5C15.9477 12 15.5 11.5523 15.5 11V3C15.5 2.44772 15.9477 2 16.5 2Z" fill="#3C3C43" fill-opacity="0.18"/>
<path fill-rule="evenodd" clip-rule="evenodd" d="M12 4H13C13.5523 4 14 4.44772 14 5V11C14 11.5523 13.5523 12 13 12H12C11.4477 12 11 11.5523 11 11V5C11 4.44772 11.4477 4 12 4Z" fill="#493958"/>
<path fill-rule="evenodd" clip-rule="evenodd" d="M7.5 6H8.5C9.05228 6 9.5 6.44772 9.5 7V11C9.5 11.5523 9.05228 12 8.5 12H7.5C6.94772 12 6.5 11.5523 6.5 11V7C6.5 6.44772 6.94772 6 7.5 6Z" fill="#493958"/>
<path fill-rule="evenodd" clip-rule="evenodd" d="M3 7.5H4C4.55228 7.5 5 7.94772 5 8.5V11C5 11.5523 4.55228 12 4 12H3C2.44772 12 2 11.5523 2 11V8.5C2 7.94772 2.44772 7.5 3 7.5Z" fill="#493958"/>
<path d="M32.133 8.93945C32.7725 8.93945 33.3938 9.1075 33.9413 9.42792L34.1632 9.55775C34.3314 9.65617 34.3609 9.88652 34.2231 10.024L32.329 11.9129C32.2126 12.0289 32.024 12.0289 31.9077 11.9129L30.0258 10.0362C29.8885 9.89927 29.9171 9.67009 30.0838 9.57094L30.3032 9.44051C30.8557 9.11198 31.485 8.93945 32.133 8.93945Z" fill="#493958"/>
<path d="M32.1327 5.46973C33.7235 5.46973 35.2509 5.99747 36.4952 6.97479L36.6711 7.11291C36.8113 7.22303 36.8236 7.43052 36.6974 7.55636L35.5666 8.684C35.462 8.7883 35.2965 8.80028 35.1779 8.71214L35.0401 8.60969C34.1997 7.98511 33.1863 7.65008 32.1327 7.65008C31.0725 7.65008 30.0532 7.98928 29.2101 8.62103L29.0721 8.72441C28.9535 8.81327 28.7874 8.80157 28.6825 8.69696L27.5521 7.56974C27.4262 7.44417 27.4381 7.2372 27.5777 7.12687L27.7525 6.98864C28.9998 6.00261 30.5342 5.46973 32.1327 5.46973Z" fill="#493958"/>
<path d="M32.1327 2C34.6574 2 37.0717 2.89057 38.9828 4.52294L39.1459 4.66228C39.2777 4.77488 39.2855 4.97558 39.1627 5.09797L38.0356 6.22195C37.9264 6.33084 37.7519 6.33847 37.6336 6.23952L37.494 6.12283C35.9894 4.86472 34.1035 4.18035 32.1327 4.18035C30.1552 4.18035 28.2633 4.86943 26.7564 6.13541L26.6168 6.2527C26.4985 6.3521 26.3236 6.34466 26.2142 6.23557L25.0873 5.11176C24.9647 4.98954 24.9722 4.78918 25.1036 4.67646L25.2661 4.53708C27.1795 2.89589 29.6006 2 32.1327 2Z" fill="#493958"/>
<path d="M68 5C68.5523 5 69 5.44772 69 6V8C69 8.55228 68.5523 9 68 9V5Z" fill="#3C3C43" fill-opacity="0.6"/>
<path fill-rule="evenodd" clip-rule="evenodd" d="M47 1H64C65.6569 1 67 2.34315 67 4V10C67 11.6569 65.6569 13 64 13H47C45.3431 13 44 11.6569 44 10V4C44 2.34315 45.3431 1 47 1ZM47 2C45.8954 2 45 2.89543 45 4V10C45 11.1046 45.8954 12 47 12H64C65.1046 12 66 11.1046 66 10V4C66 2.89543 65.1046 2 64 2H47Z" fill="#3C3C43" fill-opacity="0.6"/>
<rect x="46" y="3" width="19" height="8" rx="1" fill="#493958"/>
</svg>
